<svg width="392.039990234375px" height="124.439990234375px" xmlns="http://www.w3.org/2000/svg" viewBox="53.980004882812494 12.780004882812499 392.039990234375 124.439990234375" style="background: none;" preserveAspectRatio="xMidYMid"><defs><filter id="editing-marble" x="-100%" y="-100%" width="300%" height="300%"><feFlood flood-color="#7ba6b7" result="flood-1"></feFlood><feComposite operator="in" in="flood-1" in2="SourceAlpha" result="flood-2"></feComposite><feTurbulence baseFrequency="0.07" type="fractalNoise" numOctaves="1" seed="2" result="bs-1"></feTurbulence><feGaussianBlur stdDeviation="1" in="flood-2" result="bs-2"></feGaussianBlur><feDisplacementMap scale="110" in="bs-2" in2="bs-1" result="bs-3"></feDisplacementMap><feComposite operator="in" in="bs-3" in2="SourceAlpha" result="texture"></feComposite><feMerge><feMergeNode in="SourceGraphic"></feMergeNode><feMergeNode in="texture"></feMergeNode></feMerge></filter></defs><g filter="url(#editing-marble)"><g transform="translate(114.37999147176743, 104.76000022888184)"><path d="M27.84-9.86L27.84-9.86L27.84-9.86Q29.06-8.32 29.06-5.34L29.06-5.34L29.06-5.34Q29.06-2.37 26.78-0.54L26.78-0.54L26.78-0.54Q24.51 1.28 20.54 1.28L20.54 1.28L20.54 1.28Q18.24 1.28 14.66 0.77L14.66 0.77L14.66 0.77Q7.62-0.32 5.60-0.32L5.60-0.32L5.60-0.32Q3.58-0.32 2.75-0.22L2.75-0.22L2.75-0.22Q1.92-0.13 0.58 0L0.58 0L8.32-42.24L22.34-42.24L15.94-7.04L15.94-7.04Q16.77-6.91 17.54-6.91L17.54-6.91L19.14-6.91L19.14-6.91Q24.51-6.91 27.84-9.86ZM40.13-29.50L33.34-29.50L33.34-29.50Q35.71-37.70 35.84-46.34L35.84-46.34L37.70-46.59L37.70-46.59Q38.66-46.72 39.36-46.72L39.36-46.72L39.36-46.72Q42.18-46.72 43.71-45.34L43.71-45.34L43.71-45.34Q45.25-43.97 45.25-41.54L45.25-41.54L45.25-41.54Q45.25-38.98 44.10-36.16L44.10-36.16L44.10-36.16Q42.05-31.17 40.13-29.50L40.13-29.50ZM70.91-20.61L83.84-21.76L83.84-21.76Q79.23-11.65 79.23 0.06L79.23 0.06L79.23 0.06Q77.50 1.28 74.98 1.28L74.98 1.28L74.98 1.28Q72.45 1.28 70.85 0.10L70.85 0.10L70.85 0.10Q69.25-1.09 68.93-2.30L68.93-2.30L68.93-2.30Q67.33-0.64 64.74 0.32L64.74 0.32L64.74 0.32Q62.14 1.28 59.39 1.28L59.39 1.28L59.39 1.28Q56.64 1.28 54.24 0.38L54.24 0.38L54.24 0.38Q51.84-0.51 49.98-2.50L49.98-2.50L49.98-2.50Q45.89-6.85 45.89-15.10L45.89-15.10L45.89-15.10Q45.89-27.90 52.74-35.58L52.74-35.58L52.74-35.58Q59.78-43.52 72.26-43.52L72.26-43.52L72.26-43.52Q80.90-43.52 83.97-39.04L83.97-39.04L83.97-39.04Q84.93-37.63 84.93-35.94L84.93-35.94L84.93-35.94Q84.93-34.24 84.19-32.80L84.19-32.80L84.19-32.80Q83.46-31.36 82.30-30.21L82.30-30.21L82.30-30.21Q79.55-27.65 76.16-27.65L76.16-27.65L76.16-27.65Q74.82-27.65 73.54-28.10L73.54-28.10L73.54-28.10Q73.79-30.02 73.79-32.26L73.79-32.26L73.79-32.26Q73.79-34.50 73.63-35.52L73.63-35.52L73.63-35.52Q73.47-36.54 73.09-37.38L73.09-37.38L73.09-37.38Q72.26-39.10 70.43-39.10L70.43-39.10L70.43-39.10Q68.61-39.10 66.59-37.15L66.59-37.15L66.59-37.15Q64.58-35.20 62.98-32L62.98-32L62.98-32Q59.46-24.83 59.46-16.19L59.46-16.19L59.46-16.19Q59.46-12.22 60.99-9.41L60.99-9.41L60.99-9.41Q62.66-6.34 65.60-6.34L65.60-6.34L65.60-6.34Q66.62-6.34 67.55-6.85L67.55-6.85L67.55-6.85Q68.48-7.36 68.86-7.74L68.86-7.74L70.91-20.61ZM89.76-1.92L89.76-1.92L89.76-1.92Q88.26-3.58 87.58-6.21L87.58-6.21L87.58-6.21Q86.91-8.83 86.91-13.12L86.91-13.12L86.91-13.12Q86.91-17.41 88.38-21.31L88.38-21.31L88.38-21.31Q89.86-25.22 92.54-28.03L92.54-28.03L92.54-28.03Q98.05-33.92 107.14-33.92L107.14-33.92L107.14-33.92Q110.40-33.92 112.77-32.83L112.77-32.83L123.71-33.92L118.98-8.96L118.98-8.96Q118.78-8.19 118.78-6.78L118.78-6.78L118.78-6.78Q118.78-5.38 119.65-4.48L119.65-4.48L119.65-4.48Q120.51-3.58 121.79-3.46L121.79-3.46L121.79-3.46Q121.15-1.28 118.82 0L118.82 0L118.82 0Q116.48 1.28 113.86 1.28L113.86 1.28L113.86 1.28Q111.23 1.28 109.47 0.29L109.47 0.29L109.47 0.29Q107.71-0.70 107.20-2.37L107.20-2.37L107.20-2.37Q106.18-0.77 104 0.26L104 0.26L104 0.26Q101.82 1.28 98.91 1.28L98.91 1.28L98.91 1.28Q96 1.28 93.63 0.51L93.63 0.51L93.63 0.51Q91.26-0.26 89.76-1.92ZM103.26-27.90L103.26-27.90L103.26-27.90Q102.53-26.75 101.89-24.80L101.89-24.80L101.89-24.80Q101.25-22.85 100.19-17.63L100.19-17.63L100.19-17.63Q99.14-12.42 99.14-8.70L99.14-8.70L99.14-8.70Q99.14-4.99 99.71-3.90L99.71-3.90L99.71-3.90Q100.29-2.82 101.31-2.82L101.31-2.82L101.31-2.82Q103.36-2.82 104.86-4.77L104.86-4.77L104.86-4.77Q106.37-6.72 106.94-10.18L106.94-10.18L110.34-28.93L110.34-28.93Q108.99-30.08 107.42-30.08L107.42-30.08L107.42-30.08Q105.86-30.08 104.93-29.57L104.93-29.57L104.93-29.57Q104-29.06 103.26-27.90ZM147.20-17.98L147.20-17.98L147.20-17.98Q149.50-22.08 149.50-26.24L149.50-26.24L149.50-26.24Q149.50-28.99 147.52-28.99L147.52-28.99L147.52-28.99Q145.98-28.99 144.38-26.37L144.38-26.37L144.38-26.37Q142.72-23.74 142.21-20.35L142.21-20.35L138.88 0L125.63 1.28L132.16-32.64L142.72-33.92L141.57-27.46L141.57-27.46Q144.70-33.92 151.74-33.92L151.74-33.92L151.74-33.92Q155.46-33.92 157.47-32L157.47-32L157.47-32Q159.49-30.08 159.49-26.14L159.49-26.14L159.49-26.14Q159.49-22.21 156.90-19.71L156.90-19.71L156.90-19.71Q154.30-17.22 149.89-17.22L149.89-17.22L149.89-17.22Q147.97-17.22 147.20-17.98ZM163.30-1.92L163.30-1.92L163.30-1.92Q161.79-3.58 161.12-6.21L161.12-6.21L161.12-6.21Q160.45-8.83 160.45-13.12L160.45-13.12L160.45-13.12Q160.45-17.41 161.92-21.31L161.92-21.31L161.92-21.31Q163.39-25.22 166.08-28.03L166.08-28.03L166.08-28.03Q171.58-33.92 180.67-33.92L180.67-33.92L180.67-33.92Q183.94-33.92 186.30-32.83L186.30-32.83L197.25-33.92L192.51-8.96L192.51-8.96Q192.32-8.19 192.32-6.78L192.32-6.78L192.32-6.78Q192.32-5.38 193.18-4.48L193.18-4.48L193.18-4.48Q194.05-3.58 195.33-3.46L195.33-3.46L195.33-3.46Q194.69-1.28 192.35 0L192.35 0L192.35 0Q190.02 1.28 187.39 1.28L187.39 1.28L187.39 1.28Q184.77 1.28 183.01 0.29L183.01 0.29L183.01 0.29Q181.25-0.70 180.74-2.37L180.74-2.37L180.74-2.37Q179.71-0.77 177.54 0.26L177.54 0.26L177.54 0.26Q175.36 1.28 172.45 1.28L172.45 1.28L172.45 1.28Q169.54 1.28 167.17 0.51L167.17 0.51L167.17 0.51Q164.80-0.26 163.30-1.92ZM176.80-27.90L176.80-27.90L176.80-27.90Q176.06-26.75 175.42-24.80L175.42-24.80L175.42-24.80Q174.78-22.85 173.73-17.63L173.73-17.63L173.73-17.63Q172.67-12.42 172.67-8.70L172.67-8.70L172.67-8.70Q172.67-4.99 173.25-3.90L173.25-3.90L173.25-3.90Q173.82-2.82 174.85-2.82L174.85-2.82L174.85-2.82Q176.90-2.82 178.40-4.77L178.40-4.77L178.40-4.77Q179.90-6.72 180.48-10.18L180.48-10.18L183.87-28.93L183.87-28.93Q182.53-30.08 180.96-30.08L180.96-30.08L180.96-30.08Q179.39-30.08 178.46-29.57L178.46-29.57L178.46-29.57Q177.54-29.06 176.80-27.90ZM204.99-26.75L204.99-26.75L204.99-26.75Q207.17-29.82 210.46-31.87L210.46-31.87L210.46-31.87Q213.76-33.92 217.79-33.92L217.79-33.92L217.79-33.92Q221.82-33.92 223.74-32.64L223.74-32.64L236.29-33.92L231.94-9.34L231.94-9.34Q229.70 3.20 224.96 8.13L224.96 8.13L224.96 8.13Q220.42 12.80 211.58 12.80L211.58 12.80L211.58 12.80Q204.86 12.80 201.02 10.69L201.02 10.69L201.02 10.69Q197.18 8.58 197.18 5.06L197.18 5.06L197.18 5.06Q197.18 2.43 199.17 0.93L199.17 0.93L199.17 0.93Q201.15-0.58 204.22-0.58L204.22-0.58L204.22-0.58Q206.91-0.58 208.96 0.64L208.96 0.64L208.96 0.64Q210.18 1.28 210.75 2.18L210.75 2.18L210.75 2.18Q209.28 3.46 209.28 5.57L209.28 5.57L209.28 5.57Q209.28 8.32 211.84 8.32L211.84 8.32L211.84 8.32Q216.13 8.32 218.56-1.79L218.56-1.79L218.56-1.79Q219.26-4.54 219.84-7.30L219.84-7.30L219.84-7.30Q216.96-3.78 210.43-3.78L210.43-3.78L210.43-3.78Q205.89-3.78 203.26-5.95L203.26-5.95L203.26-5.95Q200.64-8.13 200.64-13.25L200.64-13.25L200.64-13.25Q200.64-16.45 201.73-20.06L201.73-20.06L201.73-20.06Q202.82-23.68 204.99-26.75ZM213.31-13.06L213.31-13.06L213.31-13.06Q213.31-8.70 215.55-8.70L215.55-8.70L215.55-8.70Q217.09-8.70 218.56-10.37L218.56-10.37L218.56-10.37Q219.71-11.71 220.16-13.70L220.16-13.70L223.42-30.14L223.42-30.14Q223.10-30.21 222.78-30.34L222.78-30.34L222.78-30.34Q222.14-30.59 221.31-30.59L221.31-30.59L221.31-30.59Q217.41-30.59 215.10-24.19L215.10-24.19L215.10-24.19Q213.31-19.20 213.31-13.06ZM264.70-10.82L264.70-10.82L264.70-10.82Q266.30-9.73 266.30-7.33L266.30-7.33L266.30-7.33Q266.30-4.93 265.09-3.39L265.09-3.39L265.09-3.39Q263.87-1.86 261.89-0.83L261.89-0.83L261.89-0.83Q257.79 1.28 253.38 1.28L253.38 1.28L253.38 1.28Q248.96 1.28 246.37 0.32L246.37 0.32L246.37 0.32Q243.78-0.64 242.05-2.43L242.05-2.43L242.05-2.43Q238.66-5.82 238.66-12.03L238.66-12.03L238.66-12.03Q238.66-21.70 243.90-27.58L243.90-27.58L243.90-27.58Q249.54-33.92 259.33-33.92L259.33-33.92L259.33-33.92Q265.41-33.92 268.42-31.36L268.42-31.36L268.42-31.36Q270.66-29.44 270.66-26.30L270.66-26.30L270.66-26.30Q270.66-15.04 251.20-15.04L251.20-15.04L251.20-15.04Q250.94-13.38 250.94-11.97L250.94-11.97L250.94-11.97Q250.94-9.02 252.26-7.90L252.26-7.90L252.26-7.90Q253.57-6.78 256-6.78L256-6.78L256-6.78Q258.43-6.78 261.02-7.90L261.02-7.90L261.02-7.90Q263.62-9.02 264.70-10.82ZM251.65-17.79L251.65-17.79L251.65-17.79Q256.19-17.79 258.82-20.61L258.82-20.61L258.82-20.61Q261.44-23.30 261.44-27.58L261.44-27.58L261.44-27.58Q261.44-29.06 260.90-29.86L260.90-29.86L260.90-29.86Q260.35-30.66 259.26-30.66L259.26-30.66L259.26-30.66Q258.18-30.66 257.25-30.24L257.25-30.24L257.25-30.24Q256.32-29.82 255.36-28.42L255.36-28.42L255.36-28.42Q252.99-25.22 251.65-17.79Z" fill="#064d69"></path></g></g><style>text {
  font-size: 64px;
  font-family: Arial Black;
  dominant-baseline: central;
  text-anchor: middle;
}</style></svg>