<svg width="986.7999511718749px" height="287.639990234375px" xmlns="http://www.w3.org/2000/svg" viewBox="-243.39997558593745 -68.81999511718749 986.7999511718749 287.639990234375" style="background: none;" preserveAspectRatio="xMidYMid"><defs><filter id="editing-marble" x="-100%" y="-100%" width="300%" height="300%"><feFlood flood-color="#ffffff" result="flood-1"></feFlood><feComposite operator="in" in="flood-1" in2="SourceAlpha" result="flood-2"></feComposite><feTurbulence baseFrequency="0.07" type="fractalNoise" numOctaves="1" seed="2" result="bs-1"></feTurbulence><feGaussianBlur stdDeviation="1" in="flood-2" result="bs-2"></feGaussianBlur><feDisplacementMap scale="110" in="bs-2" in2="bs-1" result="bs-3"></feDisplacementMap><feComposite operator="in" in="bs-3" in2="SourceAlpha" result="texture"></feComposite><feMerge><feMergeNode in="SourceGraphic"></feMergeNode><feMergeNode in="texture"></feMergeNode></feMerge></filter></defs><g filter="url(#editing-marble)"><g transform="translate(-103.8700180053711, 152.65499877929688)"><path d="M72.65-25.72L72.65-25.72L72.65-25.72Q75.82-21.71 75.82-13.94L75.82-13.94L75.82-13.94Q75.82-6.18 69.89-1.42L69.89-1.42L69.89-1.42Q63.96 3.34 53.61 3.34L53.61 3.34L53.61 3.34Q47.60 3.34 38.24 2.00L38.24 2.00L38.24 2.00Q19.87-0.84 14.61-0.84L14.61-0.84L14.61-0.84Q9.35-0.84 7.18-0.58L7.18-0.58L7.18-0.58Q5.01-0.33 1.50 0L1.50 0L21.71-110.22L58.28-110.22L41.58-18.37L41.58-18.37Q43.75-18.04 45.76-18.04L45.76-18.04L49.93-18.04L49.93-18.04Q63.96-18.04 72.65-25.72ZM104.71-76.99L87.01-76.99L87.01-76.99Q93.19-98.36 93.52-120.91L93.52-120.91L98.36-121.58L98.36-121.58Q100.87-121.91 102.71-121.91L102.71-121.91L102.71-121.91Q110.05-121.91 114.06-118.32L114.06-118.32L114.06-118.32Q118.07-114.73 118.07-108.38L118.07-108.38L118.07-108.38Q118.07-101.70 115.06-94.36L115.06-94.36L115.06-94.36Q109.72-81.33 104.71-76.99L104.71-76.99ZM185.04-53.77L218.77-56.78L218.77-56.78Q206.75-30.39 206.75 0.17L206.75 0.17L206.75 0.17Q202.24 3.34 195.64 3.34L195.64 3.34L195.64 3.34Q189.04 3.34 184.87 0.25L184.87 0.25L184.87 0.25Q180.69-2.84 179.86-6.01L179.86-6.01L179.86-6.01Q175.68-1.67 168.92 0.84L168.92 0.84L168.92 0.84Q162.16 3.34 154.98 3.34L154.98 3.34L154.98 3.34Q147.80 3.34 141.53 1.00L141.53 1.00L141.53 1.00Q135.27-1.34 130.43-6.51L130.43-6.51L130.43-6.51Q119.74-17.87 119.74-39.41L119.74-39.41L119.74-39.41Q119.74-72.81 137.61-92.85L137.61-92.85L137.61-92.85Q155.98-113.56 188.54-113.56L188.54-113.56L188.54-113.56Q211.09-113.56 219.10-101.87L219.10-101.87L219.10-101.87Q221.61-98.20 221.61-93.77L221.61-93.77L221.61-93.77Q221.61-89.34 219.69-85.59L219.69-85.59L219.69-85.59Q217.77-81.83 214.76-78.82L214.76-78.82L214.76-78.82Q207.58-72.14 198.73-72.14L198.73-72.14L198.73-72.14Q195.22-72.14 191.88-73.31L191.88-73.31L191.88-73.31Q192.55-78.32 192.55-84.17L192.55-84.17L192.55-84.17Q192.55-90.01 192.13-92.69L192.13-92.69L192.13-92.69Q191.72-95.36 190.71-97.53L190.71-97.53L190.71-97.53Q188.54-102.04 183.78-102.04L183.78-102.04L183.78-102.04Q179.02-102.04 173.76-96.94L173.76-96.94L173.76-96.94Q168.50-91.85 164.33-83.50L164.33-83.50L164.33-83.50Q155.14-64.80 155.14-42.25L155.14-42.25L155.14-42.25Q155.14-31.90 159.15-24.55L159.15-24.55L159.15-24.55Q163.49-16.53 171.18-16.53L171.18-16.53L171.18-16.53Q173.85-16.53 176.27-17.87L176.27-17.87L176.27-17.87Q178.69-19.21 179.69-20.21L179.69-20.21L185.04-53.77ZM234.22-5.01L234.22-5.01L234.22-5.01Q230.29-9.35 228.54-16.20L228.54-16.20L228.54-16.20Q226.79-23.05 226.79-34.23L226.79-34.23L226.79-34.23Q226.79-45.42 230.63-55.61L230.63-55.61L230.63-55.61Q234.47-65.80 241.48-73.15L241.48-73.15L241.48-73.15Q255.84-88.51 279.56-88.51L279.56-88.51L279.56-88.51Q288.08-88.51 294.25-85.67L294.25-85.67L322.81-88.51L310.45-23.38L310.45-23.38Q309.95-21.38 309.95-17.70L309.95-17.70L309.95-17.70Q309.95-14.03 312.21-11.69L312.21-11.69L312.21-11.69Q314.46-9.35 317.80-9.02L317.80-9.02L317.80-9.02Q316.13-3.34 310.04 0L310.04 0L310.04 0Q303.94 3.34 297.09 3.34L297.09 3.34L297.09 3.34Q290.25 3.34 285.65 0.75L285.65 0.75L285.65 0.75Q281.06-1.84 279.73-6.18L279.73-6.18L279.73-6.18Q277.05-2.00 271.38 0.67L271.38 0.67L271.38 0.67Q265.70 3.34 258.10 3.34L258.10 3.34L258.10 3.34Q250.50 3.34 244.32 1.34L244.32 1.34L244.32 1.34Q238.14-0.67 234.22-5.01ZM269.45-72.81L269.45-72.81L269.45-72.81Q267.53-69.81 265.86-64.71L265.86-64.71L265.86-64.71Q264.19-59.62 261.44-46.01L261.44-46.01L261.44-46.01Q258.68-32.40 258.68-22.71L258.68-22.71L258.68-22.71Q258.68-13.03 260.19-10.19L260.19-10.19L260.19-10.19Q261.69-7.35 264.36-7.35L264.36-7.35L264.36-7.35Q269.71-7.35 273.63-12.44L273.63-12.44L273.63-12.44Q277.55-17.54 279.06-26.55L279.06-26.55L287.91-75.48L287.91-75.48Q284.40-78.49 280.31-78.49L280.31-78.49L280.31-78.49Q276.22-78.49 273.80-77.15L273.80-77.15L273.80-77.15Q271.38-75.82 269.45-72.81ZM384.10-46.93L384.10-46.93L384.10-46.93Q390.11-57.62 390.11-68.47L390.11-68.47L390.11-68.47Q390.11-75.65 384.94-75.65L384.94-75.65L384.94-75.65Q380.93-75.65 376.75-68.80L376.75-68.80L376.75-68.80Q372.41-61.96 371.07-53.11L371.07-53.11L362.39 0L327.82 3.34L344.86-85.17L372.41-88.51L369.40-71.64L369.40-71.64Q377.59-88.51 395.96-88.51L395.96-88.51L395.96-88.51Q405.64-88.51 410.90-83.50L410.90-83.50L410.90-83.50Q416.16-78.49 416.16-68.22L416.16-68.22L416.16-68.22Q416.16-57.95 409.40-51.44L409.40-51.44L409.40-51.44Q402.64-44.92 391.11-44.92L391.11-44.92L391.11-44.92Q386.10-44.92 384.10-46.93ZM426.10-5.01L426.10-5.01L426.10-5.01Q422.18-9.35 420.42-16.20L420.42-16.20L420.42-16.20Q418.67-23.05 418.67-34.23L418.67-34.23L418.67-34.23Q418.67-45.42 422.51-55.61L422.51-55.61L422.51-55.61Q426.35-65.80 433.37-73.15L433.37-73.15L433.37-73.15Q447.73-88.51 471.44-88.51L471.44-88.51L471.44-88.51Q479.96-88.51 486.14-85.67L486.14-85.67L514.69-88.51L502.34-23.38L502.34-23.38Q501.84-21.38 501.84-17.70L501.84-17.70L501.84-17.70Q501.84-14.03 504.09-11.69L504.09-11.69L504.09-11.69Q506.34-9.35 509.68-9.02L509.68-9.02L509.68-9.02Q508.01-3.34 501.92 0L501.92 0L501.92 0Q495.82 3.34 488.98 3.34L488.98 3.34L488.98 3.34Q482.13 3.34 477.54 0.75L477.54 0.75L477.54 0.75Q472.94-1.84 471.61-6.18L471.61-6.18L471.61-6.18Q468.94-2.00 463.26 0.67L463.26 0.67L463.26 0.67Q457.58 3.34 449.98 3.34L449.98 3.34L449.98 3.34Q442.38 3.34 436.20 1.34L436.20 1.34L436.20 1.34Q430.03-0.67 426.10-5.01ZM461.34-72.81L461.34-72.81L461.34-72.81Q459.42-69.81 457.75-64.71L457.75-64.71L457.75-64.71Q456.08-59.62 453.32-46.01L453.32-46.01L453.32-46.01Q450.57-32.40 450.57-22.71L450.57-22.71L450.57-22.71Q450.57-13.03 452.07-10.19L452.07-10.19L452.07-10.19Q453.57-7.35 456.24-7.35L456.24-7.35L456.24-7.35Q461.59-7.35 465.51-12.44L465.51-12.44L465.51-12.44Q469.44-17.54 470.94-26.55L470.94-26.55L479.79-75.48L479.79-75.48Q476.28-78.49 472.19-78.49L472.19-78.49L472.19-78.49Q468.10-78.49 465.68-77.15L465.68-77.15L465.68-77.15Q463.26-75.82 461.34-72.81ZM534.90-69.81L534.90-69.81L534.90-69.81Q540.58-77.82 549.18-83.17L549.18-83.17L549.18-83.17Q557.78-88.51 568.30-88.51L568.30-88.51L568.30-88.51Q578.82-88.51 583.83-85.17L583.83-85.17L616.56-88.51L605.21-24.38L605.21-24.38Q599.36 8.35 587.00 21.21L587.00 21.21L587.00 21.21Q575.15 33.40 552.10 33.40L552.10 33.40L552.10 33.40Q534.57 33.40 524.55 27.89L524.55 27.89L524.55 27.89Q514.53 22.38 514.53 13.19L514.53 13.19L514.53 13.19Q514.53 6.35 519.70 2.42L519.70 2.42L519.70 2.42Q524.88-1.50 532.90-1.50L532.90-1.50L532.90-1.50Q539.91-1.50 545.25 1.67L545.25 1.67L545.25 1.67Q548.43 3.34 549.93 5.68L549.93 5.68L549.93 5.68Q546.09 9.02 546.09 14.53L546.09 14.53L546.09 14.53Q546.09 21.71 552.77 21.71L552.77 21.71L552.77 21.71Q563.96 21.71 570.31-4.68L570.31-4.68L570.31-4.68Q572.14-11.86 573.65-19.04L573.65-19.04L573.65-19.04Q566.13-9.85 549.10-9.85L549.10-9.85L549.10-9.85Q537.24-9.85 530.39-15.53L530.39-15.53L530.39-15.53Q523.55-21.21 523.55-34.57L523.55-34.57L523.55-34.57Q523.55-42.92 526.38-52.35L526.38-52.35L526.38-52.35Q529.22-61.79 534.90-69.81ZM556.61-34.07L556.61-34.07L556.61-34.07Q556.61-22.71 562.46-22.71L562.46-22.71L562.46-22.71Q566.46-22.71 570.31-27.05L570.31-27.05L570.31-27.05Q573.31-30.56 574.48-35.74L574.48-35.74L583.00-78.66L583.00-78.66Q582.16-78.82 581.33-79.16L581.33-79.16L581.33-79.16Q579.66-79.83 577.49-79.83L577.49-79.83L577.49-79.83Q567.30-79.83 561.29-63.13L561.29-63.13L561.29-63.13Q556.61-50.10 556.61-34.07ZM690.71-28.22L690.71-28.22L690.71-28.22Q694.89-25.38 694.89-19.12L694.89-19.12L694.89-19.12Q694.89-12.86 691.71-8.85L691.71-8.85L691.71-8.85Q688.54-4.84 683.36-2.17L683.36-2.17L683.36-2.17Q672.68 3.34 661.15 3.34L661.15 3.34L661.15 3.34Q649.63 3.34 642.87 0.84L642.87 0.84L642.87 0.84Q636.10-1.67 631.59-6.35L631.59-6.35L631.59-6.35Q622.74-15.20 622.74-31.40L622.74-31.40L622.74-31.40Q622.74-56.61 636.44-71.98L636.44-71.98L636.44-71.98Q651.13-88.51 676.68-88.51L676.68-88.51L676.68-88.51Q692.55-88.51 700.40-81.83L700.40-81.83L700.40-81.83Q706.24-76.82 706.24-68.64L706.24-68.64L706.24-68.64Q706.24-39.25 655.48-39.25L655.48-39.25L655.48-39.25Q654.81-34.90 654.81-31.23L654.81-31.23L654.81-31.23Q654.81-23.55 658.23-20.62L658.23-20.62L658.23-20.62Q661.65-17.70 668-17.70L668-17.70L668-17.70Q674.35-17.70 681.11-20.62L681.11-20.62L681.11-20.62Q687.87-23.55 690.71-28.22ZM656.64-46.43L656.64-46.43L656.64-46.43Q668.50-46.43 675.35-53.77L675.35-53.77L675.35-53.77Q682.20-60.79 682.20-71.98L682.20-71.98L682.20-71.98Q682.20-75.82 680.78-77.91L680.78-77.91L680.78-77.91Q679.36-79.99 676.52-79.99L676.52-79.99L676.52-79.99Q673.68-79.99 671.26-78.91L671.26-78.91L671.26-78.91Q668.84-77.82 666.33-74.15L666.33-74.15L666.33-74.15Q660.15-65.80 656.64-46.43Z" fill="#ffffff"></path></g></g><style>text {
  font-size: 64px;
  font-family: Arial Black;
  dominant-baseline: central;
  text-anchor: middle;
}</style></svg>