<svg width="686.52001953125px" height="204.839990234375px" xmlns="http://www.w3.org/2000/svg" viewBox="-93.260009765625 -27.419995117187497 686.52001953125 204.839990234375" style="background: none;" preserveAspectRatio="xMidYMid"><defs><filter id="editing-marble" x="-100%" y="-100%" width="300%" height="300%"><feFlood flood-color="#ffffff" result="flood-1"></feFlood><feComposite operator="in" in="flood-1" in2="SourceAlpha" result="flood-2"></feComposite><feTurbulence baseFrequency="0.07" type="fractalNoise" numOctaves="1" seed="2" result="bs-1"></feTurbulence><feGaussianBlur stdDeviation="1" in="flood-2" result="bs-2"></feGaussianBlur><feDisplacementMap scale="110" in="bs-2" in2="bs-1" result="bs-3"></feDisplacementMap><feComposite operator="in" in="bs-3" in2="SourceAlpha" result="texture"></feComposite><feMerge><feMergeNode in="SourceGraphic"></feMergeNode><feMergeNode in="texture"></feMergeNode></feMerge></filter></defs><g filter="url(#editing-marble)"><g transform="translate(6.315028190612793, 128.47499704360962)"><path d="M50.03-17.71L50.03-17.71L50.03-17.71Q52.21-14.95 52.21-9.60L52.21-9.60L52.21-9.60Q52.21-4.25 48.13-0.98L48.13-0.98L48.13-0.98Q44.05 2.30 36.91 2.30L36.91 2.30L36.91 2.30Q32.77 2.30 26.34 1.38L26.34 1.38L26.34 1.38Q13.69-0.58 10.06-0.58L10.06-0.58L10.06-0.58Q6.44-0.58 4.95-0.40L4.95-0.40L4.95-0.40Q3.45-0.23 1.04 0L1.04 0L14.95-75.90L40.14-75.90L28.64-12.65L28.64-12.65Q30.13-12.42 31.51-12.42L31.51-12.42L34.38-12.42L34.38-12.42Q44.05-12.42 50.03-17.71ZM72.11-53.02L59.92-53.02L59.92-53.02Q64.17-67.73 64.40-83.26L64.40-83.26L67.73-83.72L67.73-83.72Q69.46-83.95 70.73-83.95L70.73-83.95L70.73-83.95Q75.78-83.95 78.55-81.48L78.55-81.48L78.55-81.48Q81.31-79.01 81.31-74.64L81.31-74.64L81.31-74.64Q81.31-70.03 79.23-64.98L79.23-64.98L79.23-64.98Q75.56-56.01 72.11-53.02L72.11-53.02ZM127.42-37.03L150.65-39.10L150.65-39.10Q142.37-20.93 142.37 0.12L142.37 0.12L142.37 0.12Q139.26 2.30 134.72 2.30L134.72 2.30L134.72 2.30Q130.18 2.30 127.31 0.17L127.31 0.17L127.31 0.17Q124.43-1.96 123.86-4.14L123.86-4.14L123.86-4.14Q120.98-1.15 116.32 0.58L116.32 0.58L116.32 0.58Q111.66 2.30 106.72 2.30L106.72 2.30L106.72 2.30Q101.78 2.30 97.46 0.69L97.46 0.69L97.46 0.69Q93.15-0.92 89.81-4.49L89.81-4.49L89.81-4.49Q82.45-12.30 82.45-27.14L82.45-27.14L82.45-27.14Q82.45-50.14 94.76-63.94L94.76-63.94L94.76-63.94Q107.41-78.20 129.84-78.20L129.84-78.20L129.84-78.20Q145.36-78.20 150.88-70.15L150.88-70.15L150.88-70.15Q152.61-67.62 152.61-64.57L152.61-64.57L152.61-64.57Q152.61-61.53 151.28-58.94L151.28-58.94L151.28-58.94Q149.96-56.35 147.89-54.28L147.89-54.28L147.89-54.28Q142.94-49.68 136.85-49.68L136.85-49.68L136.85-49.68Q134.44-49.68 132.13-50.48L132.13-50.48L132.13-50.48Q132.59-53.94 132.59-57.96L132.59-57.96L132.59-57.96Q132.59-61.98 132.31-63.83L132.31-63.83L132.31-63.83Q132.02-65.67 131.33-67.16L131.33-67.16L131.33-67.16Q129.84-70.27 126.56-70.27L126.56-70.27L126.56-70.27Q123.28-70.27 119.66-66.76L119.66-66.76L119.66-66.76Q116.03-63.25 113.16-57.50L113.16-57.50L113.16-57.50Q106.84-44.62 106.84-29.10L106.84-29.10L106.84-29.10Q106.84-21.96 109.59-16.91L109.59-16.91L109.59-16.91Q112.59-11.38 117.88-11.38L117.88-11.38L117.88-11.38Q119.72-11.38 121.38-12.30L121.38-12.30L121.38-12.30Q123.05-13.23 123.74-13.92L123.74-13.92L127.42-37.03ZM161.29-3.45L161.29-3.45L161.29-3.45Q158.58-6.44 157.38-11.16L157.38-11.16L157.38-11.16Q156.17-15.87 156.17-23.57L156.17-23.57L156.17-23.57Q156.17-31.28 158.81-38.30L158.81-38.30L158.81-38.30Q161.46-45.31 166.29-50.37L166.29-50.37L166.29-50.37Q176.18-60.95 192.51-60.95L192.51-60.95L192.51-60.95Q198.38-60.95 202.63-59.00L202.63-59.00L222.29-60.95L213.78-16.10L213.78-16.10Q213.44-14.72 213.44-12.19L213.44-12.19L213.44-12.19Q213.44-9.66 214.99-8.05L214.99-8.05L214.99-8.05Q216.54-6.44 218.84-6.21L218.84-6.21L218.84-6.21Q217.69-2.30 213.50 0L213.50 0L213.50 0Q209.30 2.30 204.58 2.30L204.58 2.30L204.58 2.30Q199.87 2.30 196.71 0.52L196.71 0.52L196.71 0.52Q193.54-1.27 192.63-4.25L192.63-4.25L192.63-4.25Q190.78-1.38 186.88 0.46L186.88 0.46L186.88 0.46Q182.96 2.30 177.73 2.30L177.73 2.30L177.73 2.30Q172.50 2.30 168.24 0.92L168.24 0.92L168.24 0.92Q163.99-0.46 161.29-3.45ZM185.55-50.14L185.55-50.14L185.55-50.14Q184.23-48.07 183.08-44.56L183.08-44.56L183.08-44.56Q181.93-41.05 180.03-31.68L180.03-31.68L180.03-31.68Q178.13-22.31 178.13-15.64L178.13-15.64L178.13-15.64Q178.13-8.97 179.17-7.02L179.17-7.02L179.17-7.02Q180.20-5.06 182.04-5.06L182.04-5.06L182.04-5.06Q185.72-5.06 188.43-8.57L188.43-8.57L188.43-8.57Q191.13-12.08 192.16-18.29L192.16-18.29L198.26-51.98L198.26-51.98Q195.84-54.05 193.03-54.05L193.03-54.05L193.03-54.05Q190.21-54.05 188.54-53.13L188.54-53.13L188.54-53.13Q186.88-52.21 185.55-50.14ZM264.50-32.32L264.50-32.32L264.50-32.32Q268.64-39.68 268.64-47.15L268.64-47.15L268.64-47.15Q268.64-52.09 265.07-52.09L265.07-52.09L265.07-52.09Q262.31-52.09 259.44-47.38L259.44-47.38L259.44-47.38Q256.45-42.66 255.53-36.57L255.53-36.57L249.55 0L225.74 2.30L237.47-58.65L256.45-60.95L254.38-49.34L254.38-49.34Q260.01-60.95 272.66-60.95L272.66-60.95L272.66-60.95Q279.33-60.95 282.96-57.50L282.96-57.50L282.96-57.50Q286.58-54.05 286.58-46.98L286.58-46.98L286.58-46.98Q286.58-39.91 281.92-35.42L281.92-35.42L281.92-35.42Q277.26-30.94 269.33-30.94L269.33-30.94L269.33-30.94Q265.88-30.94 264.50-32.32ZM293.42-3.45L293.42-3.45L293.42-3.45Q290.72-6.44 289.51-11.16L289.51-11.16L289.51-11.16Q288.30-15.87 288.30-23.57L288.30-23.57L288.30-23.57Q288.30-31.28 290.95-38.30L290.95-38.30L290.95-38.30Q293.59-45.31 298.42-50.37L298.42-50.37L298.42-50.37Q308.31-60.95 324.64-60.95L324.64-60.95L324.64-60.95Q330.51-60.95 334.76-59.00L334.76-59.00L354.43-60.95L345.92-16.10L345.92-16.10Q345.57-14.72 345.57-12.19L345.57-12.19L345.57-12.19Q345.57-9.66 347.13-8.05L347.13-8.05L347.13-8.05Q348.68-6.44 350.98-6.21L350.98-6.21L350.98-6.21Q349.83-2.30 345.63 0L345.63 0L345.63 0Q341.43 2.30 336.72 2.30L336.72 2.30L336.72 2.30Q332.00 2.30 328.84 0.52L328.84 0.52L328.84 0.52Q325.68-1.27 324.76-4.25L324.76-4.25L324.76-4.25Q322.92-1.38 319.01 0.46L319.01 0.46L319.01 0.46Q315.10 2.30 309.87 2.30L309.87 2.30L309.87 2.30Q304.63 2.30 300.38 0.92L300.38 0.92L300.38 0.92Q296.13-0.46 293.42-3.45ZM317.69-50.14L317.69-50.14L317.69-50.14Q316.36-48.07 315.21-44.56L315.21-44.56L315.21-44.56Q314.06-41.05 312.17-31.68L312.17-31.68L312.17-31.68Q310.27-22.31 310.27-15.64L310.27-15.64L310.27-15.64Q310.27-8.97 311.30-7.02L311.30-7.02L311.30-7.02Q312.34-5.06 314.18-5.06L314.18-5.06L314.18-5.06Q317.86-5.06 320.56-8.57L320.56-8.57L320.56-8.57Q323.26-12.08 324.30-18.29L324.30-18.29L330.39-51.98L330.39-51.98Q327.98-54.05 325.16-54.05L325.16-54.05L325.16-54.05Q322.34-54.05 320.68-53.13L320.68-53.13L320.68-53.13Q319.01-52.21 317.69-50.14ZM368.34-48.07L368.34-48.07L368.34-48.07Q372.25-53.59 378.18-57.27L378.18-57.27L378.18-57.27Q384.10-60.95 391.34-60.95L391.34-60.95L391.34-60.95Q398.59-60.95 402.04-58.65L402.04-58.65L424.58-60.95L416.76-16.79L416.76-16.79Q412.73 5.75 404.22 14.61L404.22 14.61L404.22 14.61Q396.06 23 380.19 23L380.19 23L380.19 23Q368.11 23 361.21 19.21L361.21 19.21L361.21 19.21Q354.31 15.41 354.31 9.09L354.31 9.09L354.31 9.09Q354.31 4.37 357.88 1.67L357.88 1.67L357.88 1.67Q361.44-1.04 366.96-1.04L366.96-1.04L366.96-1.04Q371.79-1.04 375.47 1.15L375.47 1.15L375.47 1.15Q377.66 2.30 378.69 3.91L378.69 3.91L378.69 3.91Q376.05 6.21 376.05 10.01L376.05 10.01L376.05 10.01Q376.05 14.95 380.65 14.95L380.65 14.95L380.65 14.95Q388.35 14.95 392.72-3.22L392.72-3.22L392.72-3.22Q393.99-8.17 395.02-13.11L395.02-13.11L395.02-13.11Q389.85-6.79 378.12-6.79L378.12-6.79L378.12-6.79Q369.95-6.79 365.24-10.70L365.24-10.70L365.24-10.70Q360.52-14.61 360.52-23.80L360.52-23.80L360.52-23.80Q360.52-29.55 362.48-36.05L362.48-36.05L362.48-36.05Q364.43-42.55 368.34-48.07ZM383.29-23.46L383.29-23.46L383.29-23.46Q383.29-15.64 387.32-15.64L387.32-15.64L387.32-15.64Q390.08-15.64 392.72-18.63L392.72-18.63L392.72-18.63Q394.79-21.05 395.60-24.61L395.60-24.61L401.46-54.16L401.46-54.16Q400.89-54.28 400.31-54.51L400.31-54.51L400.31-54.51Q399.16-54.97 397.67-54.97L397.67-54.97L397.67-54.97Q390.65-54.97 386.51-43.47L386.51-43.47L386.51-43.47Q383.29-34.50 383.29-23.46ZM475.64-19.44L475.64-19.44L475.64-19.44Q478.51-17.48 478.51-13.17L478.51-13.17L478.51-13.17Q478.51-8.86 476.33-6.10L476.33-6.10L476.33-6.10Q474.14-3.33 470.58-1.50L470.58-1.50L470.58-1.50Q463.22 2.30 455.28 2.30L455.28 2.30L455.28 2.30Q447.35 2.30 442.69 0.58L442.69 0.58L442.69 0.58Q438.03-1.15 434.93-4.37L434.93-4.37L434.93-4.37Q428.83-10.46 428.83-21.62L428.83-21.62L428.83-21.62Q428.83-38.98 438.26-49.57L438.26-49.57L438.26-49.57Q448.38-60.95 465.98-60.95L465.98-60.95L465.98-60.95Q476.90-60.95 482.31-56.35L482.31-56.35L482.31-56.35Q486.33-52.90 486.33-47.27L486.33-47.27L486.33-47.27Q486.33-27.03 451.37-27.03L451.37-27.03L451.37-27.03Q450.91-24.04 450.91-21.51L450.91-21.51L450.91-21.51Q450.91-16.21 453.27-14.20L453.27-14.20L453.27-14.20Q455.63-12.19 460.00-12.19L460.00-12.19L460.00-12.19Q464.37-12.19 469.03-14.20L469.03-14.20L469.03-14.20Q473.68-16.21 475.64-19.44ZM452.18-31.97L452.18-31.97L452.18-31.97Q460.34-31.97 465.06-37.03L465.06-37.03L465.06-37.03Q469.77-41.86 469.77-49.57L469.77-49.57L469.77-49.57Q469.77-52.21 468.80-53.65L468.80-53.65L468.80-53.65Q467.82-55.09 465.86-55.09L465.86-55.09L465.86-55.09Q463.91-55.09 462.24-54.34L462.24-54.34L462.24-54.34Q460.57-53.59 458.85-51.06L458.85-51.06L458.85-51.06Q454.59-45.31 452.18-31.97Z" fill="#ffffff"></path></g></g><style>text {
  font-size: 64px;
  font-family: Arial Black;
  dominant-baseline: central;
  text-anchor: middle;
}</style></svg>